<svg xmlns="http://www.w3.org/2000/svg" version="1.1" preserveAspectRatio="xMidYMid meet" viewBox="191.5 191.47 115 117.11">
<path d="M0 0 C2.47122215 2.98311817 2.06931687 5.98760356 1.890625 9.66796875 C1.87257813 10.36986328 1.85453125 11.07175781 1.8359375 11.79492188 C1.78888713 13.52402311 1.71714373 15.2524208 1.640625 16.98046875 C3.26871094 16.91085938 3.26871094 16.91085938 4.9296875 16.83984375 C6.37497231 16.80230388 7.82028711 16.76590611 9.265625 16.73046875 C9.97847656 16.69695312 10.69132812 16.6634375 11.42578125 16.62890625 C16.6503636 16.53304235 19.45046978 17.60255901 23.640625 20.98046875 C24.640625 21.98046875 24.640625 21.98046875 24.73828125 25.359375 C24.73160869 26.75393952 24.71965032 28.14848618 24.703125 29.54296875 C24.69861328 30.25388672 24.69410156 30.96480469 24.68945312 31.69726562 C24.67763364 33.45836888 24.65969763 35.21942911 24.640625 36.98046875 C25.56875 37.10421875 26.496875 37.22796875 27.453125 37.35546875 C30.640625 37.98046875 30.640625 37.98046875 33.640625 39.98046875 C34.29624376 43.25063968 34.10367185 46.58991153 34.078125 49.91796875 C34.09810547 50.83771484 34.11808594 51.75746094 34.13867188 52.70507812 C34.13770508 54.03055664 34.13770508 54.03055664 34.13671875 55.3828125 C34.13857178 56.19226318 34.1404248 57.00171387 34.14233398 57.83569336 C33.640625 59.98046875 33.640625 59.98046875 31.78149414 61.75610352 C29.21645518 63.2230519 27.54953224 63.22287769 24.640625 62.98046875 C24.70061647 65.58709826 24.78759049 68.18798764 24.890625 70.79296875 C24.90480469 71.53095703 24.91898437 72.26894531 24.93359375 73.02929688 C25.00307591 75.47160379 25.00307591 75.47160379 25.640625 78.98046875 C27.56877874 80.7711614 27.56877874 80.7711614 29.640625 81.98046875 C30.4994348 88.63624471 30.4994348 88.63624471 28.11328125 92.37109375 C24.92135444 95.7395094 21.39598199 98.24049247 17.578125 100.85546875 C16.8238623 101.37923096 16.06959961 101.90299316 15.29248047 102.44262695 C0.12470701 112.91962003 -10.45837795 117.20611842 -29.359375 114.98046875 C-34.48203137 113.63223588 -38.86407423 111.01990163 -43.32861328 108.23486328 C-47.17431804 105.85938467 -51.13590876 103.69581538 -55.109375 101.54296875 C-55.9122998 101.1039624 -56.71522461 100.66495605 -57.54248047 100.21264648 C-63.07051859 97.3175232 -67.67132806 95.94365434 -74.01171875 96.3359375 C-76.359375 95.98046875 -76.359375 95.98046875 -78.47509766 93.85351562 C-80.69343655 90.47110928 -80.86227059 88.66549098 -80.85546875 84.65625 C-80.85611328 83.46322266 -80.85675781 82.27019531 -80.85742188 81.04101562 C-80.83744141 79.80416016 -80.81746094 78.56730469 -80.796875 77.29296875 C-80.80396484 76.04451172 -80.81105469 74.79605469 -80.81835938 73.50976562 C-80.7700218 66.64954892 -80.7700218 66.64954892 -80.359375 63.98046875 C-76.9241702 61.69033222 -75.374044 61.80203902 -71.359375 61.98046875 C-71.38032227 60.78969727 -71.40126953 59.59892578 -71.42285156 58.37207031 C-71.49528462 53.95161986 -71.54118672 49.53122179 -71.57910156 45.11035156 C-71.59920952 43.1975014 -71.62650007 41.28471264 -71.66113281 39.37207031 C-71.70968749 36.62159064 -71.73235158 33.87192398 -71.75 31.12109375 C-71.77064514 30.26678772 -71.79129028 29.41248169 -71.81256104 28.5322876 C-71.81390874 24.9613058 -71.78795074 22.679302 -69.89746094 19.59667969 C-66.25406883 17.27662815 -62.48198767 16.19773898 -58.359375 14.98046875 C-56.51893297 14.3824332 -54.68021854 13.77906197 -52.84301758 13.17114258 C-47.44766784 11.41059675 -42.04834134 9.66246778 -36.64770508 7.91821289 C-34.32404726 7.16596601 -32.0014574 6.41041248 -29.67993164 5.65161133 C-26.31138288 4.55110937 -22.93935224 3.46193863 -19.56640625 2.375 C-18.53191849 2.03443069 -17.49743073 1.69386139 -16.43159485 1.3429718 C-5.20175229 -2.24777706 -5.20175229 -2.24777706 0 0 Z " fill="#18595C" transform="translate(272.359375,193.01953125)"/>
<path d="M0 0 C0.33 0 0.66 0 1 0 C1 4.95 1 9.9 1 15 C2.62808594 14.93039063 2.62808594 14.93039063 4.2890625 14.859375 C5.73434731 14.82183513 7.17966211 14.78543736 8.625 14.75 C9.33785156 14.71648437 10.05070312 14.68296875 10.78515625 14.6484375 C16.0097386 14.5525736 18.80984478 15.62209026 23 19 C24 20 24 20 24.09765625 23.37890625 C24.09098369 24.77347077 24.07902532 26.16801743 24.0625 27.5625 C24.05798828 28.27341797 24.05347656 28.98433594 24.04882812 29.71679688 C24.03700864 31.47790013 24.01907263 33.23896036 24 35 C23.67 35 23.34 35 23 35 C23 31.04 23 27.08 23 23 C22.34 23 21.68 23 21 23 C21 26.96 21 30.92 21 35 C19.69804687 35.02578125 18.39609375 35.0515625 17.0546875 35.078125 C15.32809244 35.13442701 13.60153124 35.19177387 11.875 35.25 C10.59109375 35.27126953 10.59109375 35.27126953 9.28125 35.29296875 C3.16008573 35.52839815 -0.56517181 36.56517181 -5 41 C-5.1790571 43.07823652 -5.26807871 45.16453717 -5.3125 47.25 C-5.36857422 48.95929688 -5.36857422 48.95929688 -5.42578125 50.703125 C-4.91603741 54.65013238 -3.80544446 56.22993952 -1 59 C1.65918166 59.88639389 3.48064641 60.17989025 6.23046875 60.31640625 C7.43413086 60.37924805 7.43413086 60.37924805 8.66210938 60.44335938 C9.91217773 60.50233398 9.91217773 60.50233398 11.1875 60.5625 C12.03248047 60.60568359 12.87746094 60.64886719 13.74804688 60.69335938 C15.83184433 60.79931518 17.91590103 60.9001502 20 61 C20.05384521 63.29141286 20.09272087 65.58318188 20.125 67.875 C20.14820313 69.15117187 20.17140625 70.42734375 20.1953125 71.7421875 C20 75 20 75 18 77 C12.94800502 77.63506243 7.83835498 77.64045809 2.75 77.6875 C1.64887878 77.69827072 1.64887878 77.69827072 0.5255127 77.70925903 C-10.36673208 77.73785979 -17.93377272 76.876831 -26.27050781 69.41772461 C-35.34589577 61.97831498 -43.16116327 59.95967629 -54.75 60.0625 C-56.03132812 60.04638672 -57.31265625 60.03027344 -58.6328125 60.01367188 C-61.75632346 59.9787072 -64.87649588 59.97468642 -68 60 C-68.0493521 54.48243524 -68.08569662 48.96499829 -68.10986328 43.44726562 C-68.11993534 41.56931318 -68.13359362 39.69137647 -68.15087891 37.81347656 C-68.17507453 35.1177991 -68.18647083 32.42232854 -68.1953125 29.7265625 C-68.20563507 28.88380768 -68.21595764 28.04105286 -68.22659302 27.17276001 C-68.22699144 25.11378753 -68.12257588 23.05532065 -68 21 C-65.51160675 18.51160675 -64.06910338 18.76496912 -60.67425537 18.75115967 C-59.93338684 18.75835022 -59.19251831 18.76554077 -58.42919922 18.77294922 C-57.64862152 18.77265717 -56.86804382 18.77236511 -56.06381226 18.77206421 C-53.47732522 18.77346032 -50.89112436 18.78903458 -48.3046875 18.8046875 C-46.51392779 18.80841663 -44.72316604 18.81126408 -42.93240356 18.81326294 C-38.21411528 18.82090725 -33.49594969 18.84056255 -28.77770996 18.8626709 C-23.96510478 18.88311218 -19.15247981 18.89226097 -14.33984375 18.90234375 C-4.89317519 18.92380772 4.55340221 18.95795325 14 19 C14 18.34 14 17.68 14 17 C7.07 16.505 7.07 16.505 0 16 C0 10.72 0 5.44 0 0 Z " fill="#1F817F" transform="translate(273,195)"/>
<path d="M0 0 C12.54 0 25.08 0 38 0 C38 0.66 38 1.32 38 2 C38.63292969 2.22171875 39.26585937 2.4434375 39.91796875 2.671875 C44.25077977 4.53899255 48.25076301 6.85848003 52.3125 9.25 C53.14845703 9.71535156 53.98441406 10.18070312 54.84570312 10.66015625 C57.08461937 11.98705682 59.08474164 13.23705883 61 15 C61.66796875 18.234375 61.66796875 18.234375 61 21 C59 23 59 23 55.890625 23.375 C51.0992176 22.9131776 47.91029931 21.29747873 43.75 19 C38.6701409 16.02805493 38.6701409 16.02805493 33 15 C33 15.99 33 16.98 33 18 C34.08539063 18.54269531 35.17078125 19.08539063 36.2890625 19.64453125 C39.1640625 21.08203125 42.0390625 22.51953125 44.9140625 23.95703125 C45.616521 24.30282227 46.31897949 24.64861328 47.04272461 25.00488281 C48.70121423 25.84809146 50.31580108 26.77679823 51.91796875 27.72265625 C59.62755213 30.91788282 70.72988463 30.68863653 78.4375 27.640625 C81.13254967 25.91028061 83.55319636 24.06371822 86 22 C93.93768123 16.15451909 93.93768123 16.15451909 98.4375 15.5 C101 16 101 16 103 18 C103.54296875 20.296875 103.54296875 20.296875 103 23 C100.79533929 25.01255334 98.76579159 26.59830544 96.3125 28.25 C95.63856201 28.72236084 94.96462402 29.19472168 94.27026367 29.68139648 C92.8753626 30.65607768 91.47529454 31.62340343 90.0703125 32.58349609 C88.11726701 33.91976613 86.18127904 35.27705776 84.25 36.64453125 C72.00658668 45.27014763 62.12595655 47.48766885 47 45 C40.53922254 42.79339601 34.87671998 39.11705492 29.18652344 35.40673828 C20.97377863 30.12292457 13.18314326 26.25437781 3.23046875 26.0703125 C1 26 1 26 0 25 C-0.08737645 23.14630389 -0.10698153 21.28932459 -0.09765625 19.43359375 C-0.09515869 18.42095459 -0.09266113 17.40831543 -0.09008789 16.36499023 C-0.08098389 15.06891846 -0.07187988 13.77284668 -0.0625 12.4375 C-0.041875 8.333125 -0.02125 4.22875 0 0 Z " fill="#F8F9F9" transform="translate(196,259)"/>
<path d="M0 0 C0.99 0.66 1.98 1.32 3 2 C3.2208564 4.95064148 3.28060989 7.68368231 3.1875 10.625 C3.16719727 11.82769531 3.16719727 11.82769531 3.14648438 13.0546875 C3.11109051 15.03674378 3.05728234 17.01845551 3 19 C7.95 19 12.9 19 18 19 C17.505 20.485 17.505 20.485 17 22 C15.99997452 22.01030746 14.99994904 22.02061493 13.96961975 22.03123474 C4.56625227 22.12879804 -4.8370465 22.23151546 -14.24030209 22.33933926 C-19.07513537 22.39461127 -23.90997465 22.44803797 -28.74487305 22.49731445 C-33.40682484 22.54489507 -38.06870067 22.59723533 -42.73056221 22.65294075 C-44.51322105 22.67339296 -46.29590075 22.6921012 -48.07859612 22.70907402 C-50.56671601 22.73305486 -53.05469098 22.7631176 -55.54272461 22.79467773 C-56.65942032 22.80331093 -56.65942032 22.80331093 -57.79867554 22.81211853 C-61.18713483 22.5644931 -61.18713483 22.5644931 -64 24 C-64.16023562 26.88252645 -64.25954029 29.74378527 -64.31640625 32.62890625 C-64.33718735 33.49313705 -64.35796844 34.35736786 -64.37937927 35.24778748 C-64.44497114 38.01927445 -64.50380418 40.79085921 -64.5625 43.5625 C-64.60567608 45.43685923 -64.64929006 47.31120843 -64.69335938 49.18554688 C-64.80066227 53.79026336 -64.90190215 58.39507858 -65 63 C-65.66 62.67 -66.32 62.34 -67 62 C-68.01944169 56.96793931 -68.13496204 51.993294 -68.09765625 46.87890625 C-68.0962413 46.13414536 -68.09482635 45.38938446 -68.09336853 44.62205505 C-68.08781989 42.26882727 -68.07527733 39.9156985 -68.0625 37.5625 C-68.05747835 35.95638159 -68.05291661 34.35026168 -68.04882812 32.74414062 C-68.03786735 28.82938957 -68.02063884 24.91471151 -68 21 C-60.59822011 16.6255375 -60.59822011 16.6255375 -56.91796875 15.68359375 C-56.16717041 15.4820166 -55.41637207 15.28043945 -54.64282227 15.07275391 C-53.83256592 14.86312012 -53.02230957 14.65348633 -52.1875 14.4375 C-45.14978991 12.53640091 -38.19583651 10.44956093 -31.2734375 8.16796875 C-30.51583633 7.91879196 -29.75823517 7.66961517 -28.97767639 7.41288757 C-25.91152778 6.40219707 -22.84641933 5.38890644 -19.78671265 4.3588562 C-17.62193109 3.63022183 -15.45386292 2.91216355 -13.28515625 2.1953125 C-12.6390036 1.97372971 -11.99285095 1.75214691 -11.32711792 1.52384949 C-7.43475013 0.24750036 -4.0908293 -0.39259679 0 0 Z " fill="#115659" transform="translate(270,192)"/>
<path d="M0 0 C1.20076172 0.00515625 2.40152344 0.0103125 3.63867188 0.015625 C5.51329102 0.0465625 5.51329102 0.0465625 7.42578125 0.078125 C9.31780273 0.08585938 9.31780273 0.08585938 11.24804688 0.09375 C20.58434827 0.17419202 20.58434827 0.17419202 21.73828125 1.328125 C21.86481323 3.82051069 21.9234795 6.27282941 21.92578125 8.765625 C21.93802734 9.45978516 21.95027344 10.15394531 21.96289062 10.86914062 C21.96817967 12.69033401 21.85997332 14.5109942 21.73828125 16.328125 C18.03157497 20.03483128 11.8686612 18.69777165 6.86328125 18.703125 C5.66574219 18.72761719 4.46820313 18.75210938 3.234375 18.77734375 C2.08324219 18.78121094 0.93210937 18.78507812 -0.25390625 18.7890625 C-1.83727783 18.80138916 -1.83727783 18.80138916 -3.45263672 18.81396484 C-6.94923566 18.20921672 -8.11383744 17.10012557 -10.26171875 14.328125 C-10.79296875 11.63671875 -10.79296875 11.63671875 -10.76171875 8.765625 C-10.77203125 7.81558594 -10.78234375 6.86554688 -10.79296875 5.88671875 C-10.26171875 3.328125 -10.26171875 3.328125 -8.61987305 1.6887207 C-5.57604314 -0.06749257 -3.50280705 -0.02965664 0 0 Z " fill="#1C7D7D" transform="translate(281.26171875,233.671875)"/>
<path d="M0 0 C0 1.98 0 3.96 0 6 C-4.455 6.495 -4.455 6.495 -9 7 C-9.66 9.31 -10.32 11.62 -11 14 C-7.7 14 -4.4 14 -1 14 C-1 15.65 -1 17.3 -1 19 C-4.3 19 -7.6 19 -11 19 C-11.144375 20.11375 -11.28875 21.2275 -11.4375 22.375 C-12 26 -12 26 -13 28 C-8.05 28 -3.1 28 2 28 C2 29.98 2 31.96 2 34 C-5.26 34 -12.52 34 -20 34 C-20 28 -20 28 -18 26 C-17.54188325 24.02764667 -17.54188325 24.02764667 -17.375 21.875 C-17.189375 19.956875 -17.189375 19.956875 -17 18 C-18.65 18 -20.3 18 -22 18 C-22 16.68 -22 15.36 -22 14 C-20.35 14 -18.7 14 -17 14 C-17.12375 12.80375 -17.2475 11.6075 -17.375 10.375 C-17.3451266 7.01722957 -16.85349617 5.09423037 -14.6875 2.5 C-10.44838438 -1.27945248 -5.3379485 -0.51289897 0 0 Z " fill="#D2B16B" transform="translate(256,221)"/>
<path d="M0 0 C0.33 0 0.66 0 1 0 C1.48962163 7.22191911 1.48962163 7.22191911 -0.51171875 10.40234375 C-3.71884892 13.75044667 -7.24748952 16.26197339 -11.0625 18.875 C-11.8167627 19.39876221 -12.57102539 19.92252441 -13.34814453 20.4621582 C-28.50516074 30.93172082 -39.10822799 35.2457887 -58 33 C-63.14518636 31.62961138 -67.5323598 29.02439657 -72.01123047 26.21142578 C-75.73260708 23.9446113 -79.63427452 22.0066392 -83.5 20 C-86.00300299 18.67222189 -88.50132945 17.33592287 -91 16 C-90.01 15.67 -89.02 15.34 -88 15 C-88 14.34 -88 13.68 -88 13 C-82.99658184 14.37775283 -78.56450384 16.10184141 -74.125 18.8125 C-73.27421875 19.32683594 -72.4234375 19.84117187 -71.546875 20.37109375 C-69 22 -69 22 -66.765625 23.72265625 C-60.14733574 28.29706206 -53.76108077 28.63237897 -45.9375 28.75 C-44.92026855 28.77755371 -43.90303711 28.80510742 -42.85498047 28.83349609 C-35.07350833 28.73898429 -30.23998868 26.52271297 -24 22 C-23.31091553 21.51853516 -22.62183105 21.03707031 -21.91186523 20.54101562 C-20.00037489 19.18203009 -18.12189265 17.78789978 -16.25 16.375 C-3.72395833 7 -3.72395833 7 0 7 C0 4.69 0 2.38 0 0 Z " fill="#215C60" transform="translate(301,275)"/>
<path d="M0 0 C5.12399373 0.6864218 9.21944731 3.07130503 13.65234375 5.56054688 C17.94600782 7.83949165 21.17408443 8.33941861 26 8 C26.66 6.02 27.32 4.04 28 2 C28.33 2 28.66 2 29 2 C29.25 7.625 29.25 7.625 27 11 C29.53744315 10.45291273 29.53744315 10.45291273 32 9 C32.33 7.02 32.66 5.04 33 3 C39.6 3 46.2 3 53 3 C51.02 5.31 49.04 7.62 47 10 C46.67 11.32 46.34 12.64 46 14 C39.68060347 18.27143602 29.1729204 17.19308835 22 16 C16.50740273 14.14733397 11.63301488 11.19529814 6.76660156 8.09130859 C4.26543201 6.54622458 1.65003786 5.26758777 -1 4 C-0.67 2.68 -0.34 1.36 0 0 Z " fill="#286165" transform="translate(229,273)"/>
<path d="M0 0 C0 4.29 0 8.58 0 13 C-14.52 13 -29.04 13 -44 13 C-35.13719752 7.09146501 -23.17349847 4.7967961 -13 2 C-11.83339844 1.63261719 -10.66679687 1.26523438 -9.46484375 0.88671875 C-6 0 -6 0 0 0 Z " fill="#1D807F" transform="translate(269,197)"/>
<path d="M0 0 C0.33 0 0.66 0 1 0 C1 4.95 1 9.9 1 15 C2.62808594 14.93039063 2.62808594 14.93039063 4.2890625 14.859375 C5.73434731 14.82183513 7.17966211 14.78543736 8.625 14.75 C9.33785156 14.71648437 10.05070312 14.68296875 10.78515625 14.6484375 C16.0097386 14.5525736 18.80984478 15.62209026 23 19 C24 20 24 20 24.09765625 23.37890625 C24.09098369 24.77347077 24.07902532 26.16801743 24.0625 27.5625 C24.05798828 28.27341797 24.05347656 28.98433594 24.04882812 29.71679688 C24.03700864 31.47790013 24.01907263 33.23896036 24 35 C23.67 35 23.34 35 23 35 C23 31.04 23 27.08 23 23 C22.34 23 21.68 23 21 23 C21 26.96 21 30.92 21 35 C20.67 35 20.34 35 20 35 C20 30.38 20 25.76 20 21 C8.93465142 20.97687717 -2.13069145 20.95908522 -13.19605923 20.94818783 C-18.33359566 20.94295887 -23.47111563 20.93586099 -28.60864258 20.92456055 C-33.5623141 20.91373213 -38.51596974 20.90772326 -43.46965218 20.90512276 C-45.36397616 20.90326843 -47.25829924 20.89964766 -49.1526165 20.89426994 C-51.79634386 20.88706011 -54.44000471 20.88600903 -57.08374023 20.88647461 C-58.27056648 20.8810817 -58.27056648 20.8810817 -59.48136902 20.87557983 C-63.03515555 20.55145105 -63.03515555 20.55145105 -66 22 C-66.16010481 24.73701178 -66.25946828 27.4516759 -66.31640625 30.19140625 C-66.33718735 31.01124496 -66.35796844 31.83108368 -66.37937927 32.67576599 C-66.44496494 35.30458901 -66.50380126 37.93351504 -66.5625 40.5625 C-66.60567667 42.34050561 -66.64929067 44.11850065 -66.69335938 45.89648438 C-66.80148171 50.26421872 -66.90048728 54.63202691 -67 59 C-58.75 59 -50.5 59 -42 59 C-42 59.33 -42 59.66 -42 60 C-50.58 60 -59.16 60 -68 60 C-68.04585417 54.48221536 -68.08569622 48.96508884 -68.10986328 43.44726562 C-68.11993534 41.56931318 -68.13359362 39.69137647 -68.15087891 37.81347656 C-68.17507453 35.1177991 -68.18647083 32.42232854 -68.1953125 29.7265625 C-68.20563507 28.88380768 -68.21595764 28.04105286 -68.22659302 27.17276001 C-68.22699144 25.11378753 -68.12257588 23.05532065 -68 21 C-65.51160675 18.51160675 -64.06910338 18.76496912 -60.67425537 18.75115967 C-59.93338684 18.75835022 -59.19251831 18.76554077 -58.42919922 18.77294922 C-57.64862152 18.77265717 -56.86804382 18.77236511 -56.06381226 18.77206421 C-53.47732522 18.77346032 -50.89112436 18.78903458 -48.3046875 18.8046875 C-46.51392779 18.80841663 -44.72316604 18.81126408 -42.93240356 18.81326294 C-38.21411528 18.82090725 -33.49594969 18.84056255 -28.77770996 18.8626709 C-23.96510478 18.88311218 -19.15247981 18.89226097 -14.33984375 18.90234375 C-4.89317519 18.92380772 4.55340221 18.95795325 14 19 C14 18.34 14 17.68 14 17 C7.07 16.505 7.07 16.505 0 16 C0 10.72 0 5.44 0 0 Z " fill="#177071" transform="translate(273,195)"/>
<path d="M0 0 C6.6 0 13.2 0 20 0 C11.33061224 8.66938776 11.33061224 8.66938776 4.8125 9.31640625 C1.85848087 9.31292274 -1.05479209 9.22089059 -4 9 C-3.67 8.01 -3.34 7.02 -3 6 C-2.34 6 -1.68 6 -1 6 C-0.67 4.02 -0.34 2.04 0 0 Z " fill="#F7F9F9" transform="translate(262,276)"/>
<path d="M0 0 C0.33 0 0.66 0 1 0 C1 4.95 1 9.9 1 15 C2.62808594 14.93039063 2.62808594 14.93039063 4.2890625 14.859375 C5.73434731 14.82183513 7.17966211 14.78543736 8.625 14.75 C9.33785156 14.71648437 10.05070312 14.68296875 10.78515625 14.6484375 C16.0097386 14.5525736 18.80984478 15.62209026 23 19 C24 20 24 20 24.09765625 23.37890625 C24.09098369 24.77347077 24.07902532 26.16801743 24.0625 27.5625 C24.05798828 28.27341797 24.05347656 28.98433594 24.04882812 29.71679688 C24.03700864 31.47790013 24.01907263 33.23896036 24 35 C23.67 35 23.34 35 23 35 C23 31.04 23 27.08 23 23 C22.34 23 21.68 23 21 23 C21 26.96 21 30.92 21 35 C20.67 35 20.34 35 20 35 C20 30.38 20 25.76 20 21 C18.02 20.34 16.04 19.68 14 19 C14 18.34 14 17.68 14 17 C7.07 16.505 7.07 16.505 0 16 C0 10.72 0 5.44 0 0 Z " fill="#3D7275" transform="translate(273,195)"/>
<path d="M0 0 C0 1.98 0 3.96 0 6 C-3.375 6.625 -3.375 6.625 -7 7 C-9 5 -9 5 -9.125 2.375 C-9.08375 1.59125 -9.0425 0.8075 -9 0 C-5.93109813 -1.53445094 -3.29905734 -0.54984289 0 0 Z " fill="#0A5155" transform="translate(284,240)"/>
<path d="M0 0 C2.97 0.99 5.94 1.98 9 3 C9.33 4.65 9.66 6.3 10 8 C9.01 8.495 9.01 8.495 8 9 C5.3984375 7.78515625 5.3984375 7.78515625 2.375 6.0625 C1.37210938 5.49660156 0.36921875 4.93070312 -0.6640625 4.34765625 C-1.43492187 3.90292969 -2.20578125 3.45820313 -3 3 C-2.01 2.67 -1.02 2.34 0 2 C0 1.34 0 0.68 0 0 Z " fill="#30676B" transform="translate(213,288)"/>
</svg>